<mxfile host="app.diagrams.net" agent="Mozilla/5.0 (Windows NT 10.0; Win64; x64) AppleWebKit/537.36 (KHTML, like Gecko) Chrome/137.0.0.0 Safari/537.36" version="27.1.4">
  <diagram name="Page-1" id="hOf_HpTuz0Kz4uK7mz91">
    <mxGraphModel dx="1426" dy="811" grid="1" gridSize="10" guides="1" tooltips="1" connect="1" arrows="1" fold="1" page="1" pageScale="1" pageWidth="850" pageHeight="1100" math="0" shadow="0">
      <root>
        <mxCell id="0" />
        <mxCell id="1" parent="0" />
        <mxCell id="sBKlCfkjURI_nE0zRdqs-3" style="edgeStyle=orthogonalEdgeStyle;rounded=0;orthogonalLoop=1;jettySize=auto;html=1;exitX=0.5;exitY=1;exitDx=0;exitDy=0;" edge="1" parent="1" source="sBKlCfkjURI_nE0zRdqs-1" target="sBKlCfkjURI_nE0zRdqs-2">
          <mxGeometry relative="1" as="geometry" />
        </mxCell>
        <mxCell id="sBKlCfkjURI_nE0zRdqs-1" value="&lt;b&gt;Start&lt;/b&gt;" style="ellipse;whiteSpace=wrap;html=1;" vertex="1" parent="1">
          <mxGeometry x="365" width="120" height="40" as="geometry" />
        </mxCell>
        <mxCell id="sBKlCfkjURI_nE0zRdqs-2" value="&lt;b&gt;Get userNumber&lt;/b&gt;" style="shape=parallelogram;html=1;strokeWidth=2;perimeter=parallelogramPerimeter;whiteSpace=wrap;rounded=1;arcSize=12;size=0.23;" vertex="1" parent="1">
          <mxGeometry x="348" y="70" width="155" height="40" as="geometry" />
        </mxCell>
        <mxCell id="sBKlCfkjURI_nE0zRdqs-8" value="" style="edgeStyle=orthogonalEdgeStyle;rounded=0;orthogonalLoop=1;jettySize=auto;html=1;" edge="1" parent="1" source="sBKlCfkjURI_nE0zRdqs-4" target="sBKlCfkjURI_nE0zRdqs-7">
          <mxGeometry relative="1" as="geometry" />
        </mxCell>
        <mxCell id="sBKlCfkjURI_nE0zRdqs-9" value="True" style="edgeLabel;html=1;align=center;verticalAlign=middle;resizable=0;points=[];" vertex="1" connectable="0" parent="sBKlCfkjURI_nE0zRdqs-8">
          <mxGeometry x="-0.2857" y="-2" relative="1" as="geometry">
            <mxPoint as="offset" />
          </mxGeometry>
        </mxCell>
        <mxCell id="sBKlCfkjURI_nE0zRdqs-11" value="" style="edgeStyle=orthogonalEdgeStyle;rounded=0;orthogonalLoop=1;jettySize=auto;html=1;" edge="1" parent="1" source="sBKlCfkjURI_nE0zRdqs-4" target="sBKlCfkjURI_nE0zRdqs-10">
          <mxGeometry relative="1" as="geometry" />
        </mxCell>
        <mxCell id="sBKlCfkjURI_nE0zRdqs-4" value="&lt;b&gt;is userNumber = 0&lt;/b&gt;" style="strokeWidth=2;html=1;shape=mxgraph.flowchart.decision;whiteSpace=wrap;" vertex="1" parent="1">
          <mxGeometry x="363" y="140" width="125" height="100" as="geometry" />
        </mxCell>
        <mxCell id="sBKlCfkjURI_nE0zRdqs-6" style="edgeStyle=orthogonalEdgeStyle;rounded=0;orthogonalLoop=1;jettySize=auto;html=1;exitX=0.5;exitY=1;exitDx=0;exitDy=0;entryX=0.5;entryY=0;entryDx=0;entryDy=0;entryPerimeter=0;" edge="1" parent="1" source="sBKlCfkjURI_nE0zRdqs-2" target="sBKlCfkjURI_nE0zRdqs-4">
          <mxGeometry relative="1" as="geometry" />
        </mxCell>
        <mxCell id="sBKlCfkjURI_nE0zRdqs-27" style="edgeStyle=orthogonalEdgeStyle;rounded=0;orthogonalLoop=1;jettySize=auto;html=1;exitX=0.5;exitY=1;exitDx=0;exitDy=0;entryX=1;entryY=0.5;entryDx=0;entryDy=0;" edge="1" parent="1" source="sBKlCfkjURI_nE0zRdqs-7" target="sBKlCfkjURI_nE0zRdqs-25">
          <mxGeometry relative="1" as="geometry">
            <mxPoint x="650" y="750" as="targetPoint" />
            <Array as="points">
              <mxPoint x="590" y="750" />
            </Array>
          </mxGeometry>
        </mxCell>
        <mxCell id="sBKlCfkjURI_nE0zRdqs-7" value="&lt;b&gt;Display; &quot;Enter a positive integer.&quot;&lt;/b&gt;" style="whiteSpace=wrap;html=1;strokeWidth=2;" vertex="1" parent="1">
          <mxGeometry x="530" y="160" width="120" height="60" as="geometry" />
        </mxCell>
        <mxCell id="sBKlCfkjURI_nE0zRdqs-13" value="" style="edgeStyle=orthogonalEdgeStyle;rounded=0;orthogonalLoop=1;jettySize=auto;html=1;" edge="1" parent="1" source="sBKlCfkjURI_nE0zRdqs-10" target="sBKlCfkjURI_nE0zRdqs-12">
          <mxGeometry relative="1" as="geometry" />
        </mxCell>
        <mxCell id="sBKlCfkjURI_nE0zRdqs-10" value="&lt;b&gt;let counter = 1&lt;/b&gt;&lt;div&gt;&lt;b&gt;let result = 1&lt;/b&gt;&lt;/div&gt;" style="whiteSpace=wrap;html=1;strokeWidth=2;" vertex="1" parent="1">
          <mxGeometry x="365.5" y="280" width="120" height="60" as="geometry" />
        </mxCell>
        <mxCell id="sBKlCfkjURI_nE0zRdqs-15" value="" style="edgeStyle=orthogonalEdgeStyle;rounded=0;orthogonalLoop=1;jettySize=auto;html=1;" edge="1" parent="1" source="sBKlCfkjURI_nE0zRdqs-12" target="sBKlCfkjURI_nE0zRdqs-14">
          <mxGeometry relative="1" as="geometry" />
        </mxCell>
        <mxCell id="sBKlCfkjURI_nE0zRdqs-12" value="&lt;b&gt;result = result * counter; counter++&lt;/b&gt;" style="whiteSpace=wrap;html=1;strokeWidth=2;" vertex="1" parent="1">
          <mxGeometry x="365.5" y="380" width="120" height="60" as="geometry" />
        </mxCell>
        <mxCell id="sBKlCfkjURI_nE0zRdqs-16" style="edgeStyle=orthogonalEdgeStyle;rounded=0;orthogonalLoop=1;jettySize=auto;html=1;exitX=0;exitY=0.5;exitDx=0;exitDy=0;entryX=0;entryY=0.25;entryDx=0;entryDy=0;" edge="1" parent="1" source="sBKlCfkjURI_nE0zRdqs-14" target="sBKlCfkjURI_nE0zRdqs-12">
          <mxGeometry relative="1" as="geometry">
            <mxPoint x="280" y="390" as="targetPoint" />
            <Array as="points">
              <mxPoint x="280" y="530" />
              <mxPoint x="280" y="395" />
            </Array>
          </mxGeometry>
        </mxCell>
        <mxCell id="sBKlCfkjURI_nE0zRdqs-17" value="True" style="edgeLabel;html=1;align=center;verticalAlign=middle;resizable=0;points=[];" vertex="1" connectable="0" parent="sBKlCfkjURI_nE0zRdqs-16">
          <mxGeometry x="-0.0511" y="2" relative="1" as="geometry">
            <mxPoint as="offset" />
          </mxGeometry>
        </mxCell>
        <mxCell id="sBKlCfkjURI_nE0zRdqs-24" style="edgeStyle=orthogonalEdgeStyle;rounded=0;orthogonalLoop=1;jettySize=auto;html=1;exitX=0.5;exitY=1;exitDx=0;exitDy=0;entryX=0.5;entryY=0;entryDx=0;entryDy=0;" edge="1" parent="1" source="sBKlCfkjURI_nE0zRdqs-14" target="sBKlCfkjURI_nE0zRdqs-20">
          <mxGeometry relative="1" as="geometry" />
        </mxCell>
        <mxCell id="sBKlCfkjURI_nE0zRdqs-28" value="False" style="edgeLabel;html=1;align=center;verticalAlign=middle;resizable=0;points=[];" vertex="1" connectable="0" parent="sBKlCfkjURI_nE0zRdqs-24">
          <mxGeometry x="-0.2061" y="-1" relative="1" as="geometry">
            <mxPoint as="offset" />
          </mxGeometry>
        </mxCell>
        <mxCell id="sBKlCfkjURI_nE0zRdqs-14" value="&lt;b&gt;Is counter &amp;lt;= userNumber&lt;/b&gt;" style="rhombus;whiteSpace=wrap;html=1;strokeWidth=2;" vertex="1" parent="1">
          <mxGeometry x="363" y="480" width="124.5" height="100" as="geometry" />
        </mxCell>
        <mxCell id="sBKlCfkjURI_nE0zRdqs-26" style="edgeStyle=orthogonalEdgeStyle;rounded=0;orthogonalLoop=1;jettySize=auto;html=1;exitX=0.5;exitY=1;exitDx=0;exitDy=0;" edge="1" parent="1" source="sBKlCfkjURI_nE0zRdqs-20" target="sBKlCfkjURI_nE0zRdqs-25">
          <mxGeometry relative="1" as="geometry" />
        </mxCell>
        <mxCell id="sBKlCfkjURI_nE0zRdqs-20" value="&lt;b&gt;Display; &quot;userNum! = result &quot;&lt;/b&gt;" style="shape=parallelogram;html=1;strokeWidth=2;perimeter=parallelogramPerimeter;whiteSpace=wrap;rounded=1;arcSize=12;size=0.23;" vertex="1" parent="1">
          <mxGeometry x="310" y="620" width="230" height="50" as="geometry" />
        </mxCell>
        <mxCell id="sBKlCfkjURI_nE0zRdqs-25" value="&lt;b&gt;End&lt;/b&gt;" style="ellipse;whiteSpace=wrap;html=1;" vertex="1" parent="1">
          <mxGeometry x="365" y="730" width="120" height="40" as="geometry" />
        </mxCell>
      </root>
    </mxGraphModel>
  </diagram>
</mxfile>
